<svg xmlns:xlink="http://www.w3.org/1999/xlink" xmlns="http://www.w3.org/2000/svg" width="64" height="64" fill="none" viewBox="0 0 64 64"><path fill="#45AEF5" fill-rule="evenodd" d="M22 24h20v-8c0-5.523-4.477-10-10-10s-10 4.477-10 10zm-4 .057c-2.7.1-4.494.378-5.994 1.142A11 11 0 0 0 7.2 30.006C6 32.36 6 35.44 6 41.6v2.8c0 6.16 0 9.24 1.199 11.594a11 11 0 0 0 4.807 4.807C14.36 62 17.44 62 23.6 62h16.8c6.16 0 9.24 0 11.594-1.199a11 11 0 0 0 4.807-4.807C58 53.64 58 50.56 58 44.4v-2.8c0-6.16 0-9.24-1.199-11.594a11 11 0 0 0-4.807-4.807c-1.5-.764-3.295-1.041-5.994-1.142V16c0-7.732-6.268-14-14-14S18 8.268 18 16zM30 36a2 2 0 1 1 4 0v8a2 2 0 1 1-4 0z" clip-rule="evenodd"></path></svg>