<svg xmlns:xlink="http://www.w3.org/1999/xlink" xmlns="http://www.w3.org/2000/svg" width="80" height="80" fill="none" viewBox="0 0 80 80"><path fill="#0098EA" d="M0 35.2c0-12.321 0-18.482 2.398-23.188a22 22 0 0 1 9.614-9.614C16.718 0 22.88 0 35.2 0h9.6c12.321 0 18.482 0 23.188 2.398a22 22 0 0 1 9.614 9.614C80 16.718 80 22.88 80 35.2v9.6c0 12.321 0 18.482-2.398 23.188a22 22 0 0 1-9.614 9.614C63.282 80 57.12 80 44.8 80h-9.6c-12.321 0-18.482 0-23.188-2.398a22 22 0 0 1-9.614-9.614C0 63.282 0 57.12 0 44.8z"></path><path fill="#FFFFFF" d="M53.658 22.325H26.34c-5.023 0-8.206 5.418-5.68 9.798l16.86 29.221c1.1 1.908 3.857 1.908 4.957 0L59.34 32.123c2.524-4.373-.66-9.798-5.679-9.798zM37.507 52.581l-3.672-7.106-8.859-15.844c-.584-1.015.138-2.314 1.361-2.314h11.166v25.268zm17.508-22.954L46.16 45.48l-3.672 7.102V27.313h11.166c1.224 0 1.946 1.3 1.361 2.314"></path></svg>