<svg xmlns:xlink="http://www.w3.org/1999/xlink" xmlns="http://www.w3.org/2000/svg" width="80" height="80" fill="none" viewBox="0 0 80 80"><clipPath id="a" fill="none"><path d="M0 0h80v80H0z" fill="none"></path></clipPath><g clip-path="url(#a)" fill="none"><path fill="#017BFF" d="M0 35.2c0-12.321 0-18.482 2.398-23.188a22 22 0 0 1 9.614-9.614C16.718 0 22.88 0 35.2 0h9.6c12.321 0 18.482 0 23.188 2.398a22 22 0 0 1 9.614 9.614C80 16.718 80 22.88 80 35.2v9.6c0 12.321 0 18.482-2.398 23.188a22 22 0 0 1-9.614 9.614C63.282 80 57.12 80 44.8 80h-9.6c-12.321 0-18.482 0-23.188-2.398a22 22 0 0 1-9.614-9.614C0 63.282 0 57.12 0 44.8z"></path><g fill="#FFFFFF"><path d="M44.72 48.915a.456.456 0 0 1 .678.21l3.772 10.148c.121.327-.184.651-.533.566l-13.889-3.394a.428.428 0 0 1-.145-.775z" fill="#FFFFFF"></path><path d="M47.304 46.4a.4.4 0 0 1-.026-.145V36.027c0-.29-.29-.497-.577-.415L34.8 39.004c-.288.082-.576-.126-.576-.415v-6.61c0-.135.065-.263.177-.345L49.91 20.236a.46.46 0 0 1 .661.128l9.37 15.73a.42.42 0 0 1 .03.366l-7.887 20.542c-.146.379-.703.376-.844-.005zM30.105 21.397a.46.46 0 0 1 .277-.122l14.315-1.126c.447-.036.665.514.308.776l-12.2 8.951a.46.46 0 0 1-.397.072l-8.034-2.234a.427.427 0 0 1-.19-.725z" fill="#FFFFFF"></path><path d="M22.138 29.962a.448.448 0 0 1 .57-.362l8.516 2.374a.435.435 0 0 1 .324.416v9.613c0 .29.288.498.576.415l11.82-3.377c.287-.082.576.126.576.416v6.106a.43.43 0 0 1-.193.355L31.07 54.805a.46.46 0 0 1-.56-.038L20.292 45.67a.42.42 0 0 1-.141-.372z" fill="#FFFFFF"></path></g></g></svg>