<svg xmlns:xlink="http://www.w3.org/1999/xlink" xmlns="http://www.w3.org/2000/svg" width="80" height="80" fill="none" viewBox="0 0 80 80"><defs><clipPath id="a" fill="none"><path d="M0 0h80v80H0z" fill="none"></path></clipPath></defs><linearGradient id="a" x1="11.596" x2="68.118" y1="10" y2="66.522" gradientUnits="userSpaceOnUse" fill="none"><stop offset="0" stop-color="#00fff0" stop-opacity="0.52" fill="none"></stop><stop offset="1" stop-color="#4200ff" stop-opacity="0" fill="none"></stop></linearGradient><clipPath id="b" fill="none"><path d="M0 0h80v80H0z" fill="none"></path></clipPath><g clip-path="url(#b)" fill="none"><path fill="#000" d="M0 35.2c0-12.321 0-18.482 2.398-23.188a22 22 0 0 1 9.614-9.614C16.718 0 22.88 0 35.2 0h9.6c12.321 0 18.482 0 23.188 2.398a22 22 0 0 1 9.614 9.614C80 16.718 80 22.88 80 35.2v9.6c0 12.321 0 18.482-2.398 23.188a22 22 0 0 1-9.614 9.614C63.282 80 57.12 80 44.8 80h-9.6c-12.321 0-18.482 0-23.188-2.398a22 22 0 0 1-9.614-9.614C0 63.282 0 57.12 0 44.8z"></path><path fill="#6B7AFE" d="m39.857 60 22.857-28-5.143-8-4.857-2.286L46.43 20H33.286L27 21.714 22.143 24 17 32z"></path><path fill="#6171FA" d="m42.292 57.017 5.565-19.874 7.714-1.714-7.577 14.603z"></path><path fill="#4153FA" d="M47.994 50.032 62.714 32l-7.142 3.428z"></path><path fill="#8F9AFF" d="m37.422 57.017-5.565-19.874h16l-5.564 19.873L39.857 60z"></path><path fill="#CCD1FF" d="m39.857 37.143-8-9.143h16z"></path><path fill="#4A5BFA" d="M31.72 50.032 24.143 35.43l7.714 1.714 5.565 19.874z"></path><path fill="#808CFF" d="m39.857 37.143-8-9.143v9.143z"></path><path fill="#283DFA" d="m17 32 14.72 18.032-7.577-14.604z"></path><path fill="#A3ACFF" d="m39.857 37.143 8-9.143v9.143z"></path><path fill="#ABB3FF" d="m31.856 28-7.428-2.286 7.428 11.429z"></path><path fill="#B5BCFF" d="m47.856 28 7.429-2.286-7.429 11.429z"></path><path fill="#5263FF" d="m31.857 37.143-7.429-11.429-.285 9.715zm16 0 7.428-11.429.286 9.715z"></path><path fill="#8793FF" d="M24.429 25.714 17 32l7.143 3.429zM55.57 35.43 62.714 32l-7.428-6.286z"></path><path fill="#A3ACFF" d="M55.571 35.429 62.714 32 59 28.857z"></path><path fill="#99A3FF" d="M24.143 35.429 17 32l3.714-3.143z"></path><path fill="#4A5BFA" d="m17 32 5.143-8 2.286 1.715z"></path><path fill="#5565FA" d="m62.715 32-5.143-8-2.286 1.714z"></path><path fill="#7E8BFF" d="M33.285 20h13.143l6.286 1.714L57.571 24l-2.286 1.714-7.428 2.298h-16l-7.429-2.298L22.143 24 27 21.714z"></path><path fill="url(&quot;#a&quot;)" d="m39.857 60 22.857-28-5.143-8-4.857-2.286L46.43 20H33.286L27 21.714 22.143 24 17 32z"></path></g></svg>