<svg xmlns:xlink="http://www.w3.org/1999/xlink" xmlns="http://www.w3.org/2000/svg" width="80" height="80" fill="none" viewBox="0 0 80 80"><clipPath id="a" fill="none"><path d="M0 0h80v80H0z" fill="none"></path></clipPath><g clip-path="url(#a)" fill="none"><path fill="#0593FF" d="M0 35.2c0-12.321 0-18.482 2.398-23.188a22 22 0 0 1 9.614-9.614C16.718 0 22.88 0 35.2 0h9.6c12.321 0 18.482 0 23.188 2.398a22 22 0 0 1 9.614 9.614C80 16.718 80 22.88 80 35.2v9.6c0 12.321 0 18.482-2.398 23.188a22 22 0 0 1-9.614 9.614C63.282 80 57.12 80 44.8 80h-9.6c-12.321 0-18.482 0-23.188-2.398a22 22 0 0 1-9.614-9.614C0 63.282 0 57.12 0 44.8z"></path><path fill="#FFFFFF" fill-rule="evenodd" d="M40 18.571C40 30.406 30.406 40 18.57 40c0-11.835 9.594-21.429 21.429-21.429m0 42.858C28.165 61.429 18.57 51.835 18.57 40 30.406 40 40 49.594 40 61.429M61.429 40c0 11.835-9.594 21.429-21.43 21.429C40 49.594 49.595 40 61.43 40m-1.786-19.643c0 9.862-7.995 17.857-17.857 17.857 0-9.862 7.995-17.857 17.857-17.857" clip-rule="evenodd"></path></g></svg>