<svg xmlns:xlink="http://www.w3.org/1999/xlink" xmlns="http://www.w3.org/2000/svg" width="28" height="28" fill="none" viewBox="0 0 28 28"><path fill="#1DE9B6" d="M0 13.637C0 8.17 4.59 0 14.01 0 23.416 0 28 6.946 28 11.834c0 3.922-3.1 6.812-6.994 6.812-2.972 0-4.732-.986-4.732-1.771 0-.508 1.229-1.286 1.229-2.787 0-1.796-1.39-3.596-3.532-3.596-2.053 0-3.482 1.709-3.482 3.433 0 4.166 3.941 8.15 9.752 8.15 3.471 0 4.732-1.279 5.182-1.279.138 0 .453.056.453.422 0 .35-3.84 6.78-11.858 6.78C6.042 28 0 21.717 0 13.638"></path><path fill="url(&quot;#paint0_radial_722_121&quot;)" d="M0 13.637C0 8.17 5.33 5.209 8.911 5.209c9.407 0 12.094 1.738 12.094 6.625 0 3.923-3.502 3.756-3.502 2.255 0-1.796-1.39-3.596-3.532-3.596-2.053 0-3.482 1.71-3.482 3.434 0 4.166 3.941 8.15 9.752 8.15 3.471 0 4.732-1.28 5.182-1.28.138 0 .453.057.453.423 0 .35-3.84 6.78-11.858 6.78C6.042 28 0 21.716 0 13.637"></path><path fill="url(&quot;#paint1_radial_722_121&quot;)" d="M10.49 13.926c0-1.609 1.242-3.203 3.076-3.41-2.873.244-6.159 3.063-6.159 8.282 0 5.574 4.805 9.425 9.76 8.84 5.87-1.35 8.709-6.119 8.709-6.418 0-.366-.316-.422-.453-.422-.45 0-1.71 1.28-5.182 1.28-5.81 0-9.752-3.985-9.752-8.152"></path><path fill="url(&quot;#paint2_radial_722_121&quot;)" d="M0 13.637C0 8.17 4.59 0 14.01 0 23.416 0 28 6.946 28 11.834c0 3.922-3.1 6.812-6.994 6.812-2.972 0-4.732-.986-4.732-1.771 0-.508 1.229-1.286 1.229-2.787 0-1.796-1.453-7.475-8.84-7.475C6.61 6.613.88 7.52 0 13.637"></path><defs><radialGradient id="paint0_radial_722_121" cx="0" cy="0" r="1" gradientTransform="matrix(14.9436 0 0 16.562 9.795 20.196)" gradientUnits="userSpaceOnUse"><stop offset="0.652" stop-color="#0083DE"></stop><stop offset="0.822" stop-color="#006AAC"></stop><stop offset="0.944" stop-color="#005A8C"></stop></radialGradient><radialGradient id="paint1_radial_722_121" cx="0" cy="0" r="1" gradientTransform="matrix(11.5346 0 0 11.5669 16.857 17.717)" gradientUnits="userSpaceOnUse"><stop offset="0.69" stop-color="#05509B"></stop><stop offset="0.717" stop-color="#054E98"></stop><stop offset="1" stop-color="#033E78"></stop></radialGradient><radialGradient id="paint2_radial_722_121" cx="0" cy="0" r="1" gradientTransform="matrix(-43.0724 0 0 -64.9704 30.554 8.44)" gradientUnits="userSpaceOnUse"><stop stop-color="#5EEB69"></stop><stop offset="0.214" stop-color="#4BC958"></stop><stop offset="0.225" stop-color="#4AC862"></stop><stop offset="0.272" stop-color="#47C68B"></stop><stop offset="0.323" stop-color="#44C4AE"></stop><stop offset="0.376" stop-color="#41C2CB"></stop><stop offset="0.433" stop-color="#3FC1E1"></stop><stop offset="0.495" stop-color="#3EC0F1"></stop><stop offset="0.565" stop-color="#3DBFFA"></stop><stop offset="0.664" stop-color="#3DBFFD"></stop></radialGradient><radialGradient id="paint0_radial_722_121" cx="0" cy="0" r="1" gradientTransform="matrix(14.9436 0 0 16.562 9.795 20.196)" gradientUnits="userSpaceOnUse"><stop offset="0.652" stop-color="#0083DE"></stop><stop offset="0.822" stop-color="#006AAC"></stop><stop offset="0.944" stop-color="#005A8C"></stop></radialGradient><radialGradient id="paint1_radial_722_121" cx="0" cy="0" r="1" gradientTransform="matrix(11.5346 0 0 11.5669 16.857 17.717)" gradientUnits="userSpaceOnUse"><stop offset="0.69" stop-color="#05509B"></stop><stop offset="0.717" stop-color="#054E98"></stop><stop offset="1" stop-color="#033E78"></stop></radialGradient><radialGradient id="paint2_radial_722_121" cx="0" cy="0" r="1" gradientTransform="matrix(-43.0724 0 0 -64.9704 30.554 8.44)" gradientUnits="userSpaceOnUse"><stop stop-color="#5EEB69"></stop><stop offset="0.214" stop-color="#4BC958"></stop><stop offset="0.225" stop-color="#4AC862"></stop><stop offset="0.272" stop-color="#47C68B"></stop><stop offset="0.323" stop-color="#44C4AE"></stop><stop offset="0.376" stop-color="#41C2CB"></stop><stop offset="0.433" stop-color="#3FC1E1"></stop><stop offset="0.495" stop-color="#3EC0F1"></stop><stop offset="0.565" stop-color="#3DBFFA"></stop><stop offset="0.664" stop-color="#3DBFFD"></stop></radialGradient><radialGradient id="paint0_radial_722_121" cx="0" cy="0" r="1" gradientTransform="matrix(14.9436 0 0 16.562 9.795 20.196)" gradientUnits="userSpaceOnUse"><stop offset="0.652" stop-color="#0083DE"></stop><stop offset="0.822" stop-color="#006AAC"></stop><stop offset="0.944" stop-color="#005A8C"></stop></radialGradient><radialGradient id="paint1_radial_722_121" cx="0" cy="0" r="1" gradientTransform="matrix(11.5346 0 0 11.5669 16.857 17.717)" gradientUnits="userSpaceOnUse"><stop offset="0.69" stop-color="#05509B"></stop><stop offset="0.717" stop-color="#054E98"></stop><stop offset="1" stop-color="#033E78"></stop></radialGradient><radialGradient id="paint2_radial_722_121" cx="0" cy="0" r="1" gradientTransform="matrix(-43.0724 0 0 -64.9704 30.554 8.44)" gradientUnits="userSpaceOnUse"><stop stop-color="#5EEB69"></stop><stop offset="0.214" stop-color="#4BC958"></stop><stop offset="0.225" stop-color="#4AC862"></stop><stop offset="0.272" stop-color="#47C68B"></stop><stop offset="0.323" stop-color="#44C4AE"></stop><stop offset="0.376" stop-color="#41C2CB"></stop><stop offset="0.433" stop-color="#3FC1E1"></stop><stop offset="0.495" stop-color="#3EC0F1"></stop><stop offset="0.565" stop-color="#3DBFFA"></stop><stop offset="0.664" stop-color="#3DBFFD"></stop></radialGradient></defs></svg>