<svg xmlns:xlink="http://www.w3.org/1999/xlink" xmlns="http://www.w3.org/2000/svg" width="96" height="96" fill="none" viewBox="0 0 96 96"><g clip-path="url(#clip0_11533_8437)" fill="none"><mask id="mask0_11533_8437" width="96" height="96" x="0" y="0" maskUnits="userSpaceOnUse" style="mask-type: alpha;" fill="none"><path fill="#10161F" d="M0 38.4c0-13.441 0-20.162 2.616-25.296A24 24 0 0 1 13.104 2.616C18.238 0 24.96 0 38.4 0h19.2c13.441 0 20.162 0 25.296 2.616a24 24 0 0 1 10.488 10.488C96 18.238 96 24.96 96 38.4v19.2c0 13.441 0 20.162-2.616 25.296a24 24 0 0 1-10.488 10.488C77.762 96 71.04 96 57.6 96H38.4c-13.441 0-20.162 0-25.296-2.616A24 24 0 0 1 2.616 82.896C0 77.762 0 71.04 0 57.6z"></path></mask><g mask="url(#mask0_11533_8437)" fill="none"><path fill="#10161F" d="M0 38.4c0-13.441 0-20.162 2.616-25.296A24 24 0 0 1 13.104 2.616C18.238 0 24.96 0 38.4 0h19.2c13.441 0 20.162 0 25.296 2.616a24 24 0 0 1 10.488 10.488C96 18.238 96 24.96 96 38.4v19.2c0 13.441 0 20.162-2.616 25.296a24 24 0 0 1-10.488 10.488C77.762 96 71.04 96 57.6 96H38.4c-13.441 0-20.162 0-25.296-2.616A24 24 0 0 1 2.616 82.896C0 77.762 0 71.04 0 57.6z"></path><path stroke="#45AEF5" stroke-width="9.6px" d="M-24.06 69.793C49.84 87.6 63.152 20.43 41.396 17.86c-15.313-1.81-20.304 27.022-5.684 41.34 3.697 3.621 8.683 6.314 15.133 7.348 25.341 4.062 29.867-18.535 18.603-20.305-16.285-2.56-18.694 52.564 48.716 29.09" fill="none"></path><path stroke="url(&quot;#paint0_linear_11533_8437&quot;)" stroke-width="9.6px" d="M69.447 46.243c-16.285-2.56-18.694 52.564 48.716 29.09" fill="none"></path><path stroke="#45AEF5" stroke-width="9.6px" d="M50.844 66.548c25.341 4.062 29.867-18.535 18.603-20.305" fill="none"></path><path stroke="url(&quot;#paint1_linear_11533_8437&quot;)" stroke-width="9.6px" d="M50.844 66.548c-6.45-1.034-11.436-3.727-15.134-7.348" fill="none"></path><path stroke="url(&quot;#paint2_linear_11533_8437&quot;)" stroke-width="9.6px" d="M41.395 17.86C26.082 16.05 21.091 44.882 35.71 59.2" fill="none"></path><path stroke="#45AEF5" stroke-width="9.6px" d="M-24.06 69.793C49.84 87.6 63.152 20.43 41.396 17.86" fill="none"></path></g></g><defs><linearGradient id="paint0_linear_11533_8437" x1="59.892" x2="59.892" y1="46.216" y2="81.127" gradientUnits="userSpaceOnUse"><stop offset="0.184" stop-color="#45AEF5"></stop><stop offset="0.653" stop-color="#2B91D6"></stop><stop offset="1" stop-color="#45AEF5"></stop></linearGradient><linearGradient id="paint1_linear_11533_8437" x1="48.266" x2="35.823" y1="66.548" y2="66.548" gradientUnits="userSpaceOnUse"><stop offset="0.206" stop-color="#45AEF5"></stop><stop offset="1" stop-color="#2B91D6"></stop></linearGradient><linearGradient id="paint2_linear_11533_8437" x1="26.99" x2="26.99" y1="17.849" y2="59.154" gradientUnits="userSpaceOnUse"><stop offset="0.206" stop-color="#45AEF5"></stop><stop offset="1" stop-color="#2B91D6"></stop></linearGradient><clipPath id="clip0_11533_8437"><path fill="#fff" d="M0 0h96v96H0z"></path></clipPath><linearGradient id="paint0_linear_11533_8437" x1="59.892" x2="59.892" y1="46.216" y2="81.127" gradientUnits="userSpaceOnUse"><stop offset="0.184" stop-color="#45AEF5"></stop><stop offset="0.653" stop-color="#2B91D6"></stop><stop offset="1" stop-color="#45AEF5"></stop></linearGradient><linearGradient id="paint1_linear_11533_8437" x1="48.266" x2="35.823" y1="66.548" y2="66.548" gradientUnits="userSpaceOnUse"><stop offset="0.206" stop-color="#45AEF5"></stop><stop offset="1" stop-color="#2B91D6"></stop></linearGradient><linearGradient id="paint2_linear_11533_8437" x1="26.99" x2="26.99" y1="17.849" y2="59.154" gradientUnits="userSpaceOnUse"><stop offset="0.206" stop-color="#45AEF5"></stop><stop offset="1" stop-color="#2B91D6"></stop></linearGradient></defs></svg>