<svg xmlns:xlink="http://www.w3.org/1999/xlink" xmlns="http://www.w3.org/2000/svg" width="64" height="64" fill="none" viewBox="0 0 64 64"><path fill="#45AEF5" fill-rule="evenodd" d="M53.414 10.586c-6.856-6.856-17.972-6.856-24.828 0l-2.524 2.523a2 2 0 1 0 2.829 2.829l2.523-2.524c5.294-5.294 13.878-5.294 19.172 0s5.294 13.878 0 19.172l-2.532 2.531a2 2 0 0 0 2.829 2.829l2.531-2.532c6.856-6.856 6.856-17.972 0-24.828m-34 14.828a2 2 0 1 0-2.828-2.828l-6 6c-6.856 6.856-6.856 17.972 0 24.828s17.972 6.856 24.828 0l6-6a2 2 0 1 0-2.828-2.828l-6 6c-5.294 5.294-13.878 5.294-19.172 0s-5.294-13.878 0-19.172zm24-2a2 2 0 0 0-2.828-2.828l-20 20a2 2 0 0 0 2.829 2.828z" clip-rule="evenodd"></path></svg>