<svg xmlns:xlink="http://www.w3.org/1999/xlink" xmlns="http://www.w3.org/2000/svg" width="96" height="96" fill="none" viewBox="0 0 96 96"><g clip-path="url(#clip0_11533_8436)" fill="none"><path fill="#10161F" d="M0 38.4c0-13.441 0-20.162 2.616-25.296A24 24 0 0 1 13.104 2.616C18.238 0 24.96 0 38.4 0h19.2c13.441 0 20.162 0 25.296 2.616a24 24 0 0 1 10.488 10.488C96 18.238 96 24.96 96 38.4v19.2c0 13.441 0 20.162-2.616 25.296a24 24 0 0 1-10.488 10.488C77.762 96 71.04 96 57.6 96H38.4c-13.441 0-20.162 0-25.296-2.616A24 24 0 0 1 2.616 82.896C0 77.762 0 71.04 0 57.6z"></path><path fill="#45AEF5" d="m48 46.399 28.8-12.8-28.8 44.8z" opacity="0.5"></path><path fill="#45AEF5" d="m48 46.399-28.8-12.8 28.8 44.8z" opacity="0.75"></path><path fill="#45AEF5" d="m48 46.399-28.8-12.8 28.8-12.8 28.8 12.8z"></path></g><defs><clipPath id="clip0_11533_8436"><path fill="#fff" d="M0 0h96v96H0z"></path></clipPath></defs></svg>