<svg xmlns:xlink="http://www.w3.org/1999/xlink" xmlns="http://www.w3.org/2000/svg" width="56" height="56" fill="none" viewBox="0 0 56 56"><g id="28 / ic-house-28" fill="#45AEF5"><path id="Shape" d="M20 24h16v24H20z" opacity="0.32" fill="#45AEF5"></path><path id="Shape_2" d="M23.475 8.526 9.748 22.25c-1.384 1.384-2.075 2.076-2.57 2.883a8 8 0 0 0-.958 2.313C6 28.367 6 29.346 6 31.302V41.6c0 2.24 0 3.36.436 4.216a4 4 0 0 0 1.748 1.748C9.04 48 10.16 48 12.4 48H21V37a7 7 0 1 1 14 0v11h8.6c2.24 0 3.36 0 4.216-.436a4 4 0 0 0 1.748-1.748C50 44.961 50 43.841 50 41.6V31.302c0-1.956 0-2.935-.221-3.855a8 8 0 0 0-.958-2.313c-.495-.807-1.186-1.499-2.57-2.883L32.526 8.526c-1.585-1.584-2.377-2.376-3.29-2.673a4 4 0 0 0-2.472 0c-.913.297-1.705 1.089-3.29 2.673" fill="#45AEF5"></path></g></svg>