<svg xmlns:xlink="http://www.w3.org/1999/xlink" xmlns="http://www.w3.org/2000/svg" width="28" height="32" fill="none" viewBox="0 0 28 32"><path fill="url(&quot;#paint0_linear_722_122&quot;)" fill-rule="evenodd" d="m26.365 7.676.752-1.841S26.16 4.81 24.999 3.65c-1.16-1.16-3.62-.477-3.62-.477L18.58 0H8.743l-2.8 3.174s-2.46-.683-3.62.477A98 98 0 0 0 .205 5.835l.752 1.841L0 10.406s2.813 10.64 3.142 11.94c.65 2.557 1.093 3.546 2.938 4.843 1.843 1.296 5.19 3.547 5.736 3.89.547.34 1.23.921 1.845.921s1.298-.581 1.844-.922c.547-.341 3.893-2.593 5.738-3.889 1.844-1.296 2.288-2.286 2.937-4.844.33-1.3 3.141-11.94 3.141-11.94z" clip-rule="evenodd"></path><path fill="#FFFFFF" fill-rule="evenodd" d="M17.144 5.766c.41 0 3.45-.58 3.45-.58s3.602 4.35 3.602 5.28c0 .768-.31 1.068-.675 1.423q-.115.11-.234.235l-2.7 2.864-.089.09c-.27.27-.666.67-.387 1.332l.058.135c.307.717.686 1.603.204 2.5-.514.955-1.393 1.592-1.957 1.486-.563-.105-1.886-.796-2.373-1.11-.486-.317-2.03-1.587-2.03-2.074 0-.405 1.11-1.08 1.65-1.408.107-.065.191-.116.24-.149.055-.037.149-.095.263-.166.492-.306 1.38-.857 1.403-1.101.027-.302.017-.39-.38-1.134-.084-.159-.183-.328-.285-.503-.377-.65-.8-1.376-.706-1.896.105-.588 1.027-.925 1.808-1.21q.147-.053.284-.105l.813-.305c.78-.292 1.645-.616 1.789-.682.197-.09.146-.177-.453-.234l-.29-.03c-.742-.079-2.11-.224-2.774-.039-.13.037-.277.076-.43.118-.747.202-1.662.45-1.75.592l-.045.067c-.084.12-.139.197-.046.704l.155.816c.206 1.077.528 2.755.569 3.132q.008.08.018.153c.051.42.085.7-.404.813l-.127.029c-.553.126-1.362.312-1.654.312s-1.102-.186-1.654-.312l-.127-.03c-.49-.111-.455-.391-.403-.812l.017-.153c.04-.377.364-2.06.57-3.136.07-.366.127-.661.154-.812.093-.507.038-.585-.046-.704l-.045-.067c-.087-.143-1.002-.39-1.75-.592-.153-.042-.3-.081-.43-.118-.665-.185-2.032-.04-2.773.039l-.29.03c-.6.057-.65.144-.453.234.143.066 1.008.39 1.787.682l.814.305q.138.053.285.105c.78.286 1.702.622 1.807 1.21.094.52-.329 1.247-.706 1.896-.102.175-.2.344-.285.503-.396.744-.407.832-.38 1.134.023.245.91.795 1.402 1.1.115.072.209.13.264.167.05.033.133.084.24.15.54.327 1.649 1.001 1.649 1.407 0 .486-1.542 1.757-2.03 2.073-.485.316-1.809 1.006-2.373 1.111-.563.106-1.443-.531-1.956-1.486-.482-.897-.103-1.783.204-2.5l.057-.135c.28-.662-.116-1.061-.386-1.332l-.088-.09-2.7-2.864q-.12-.124-.235-.235c-.365-.354-.675-.655-.675-1.424 0-.93 3.602-5.279 3.602-5.279s3.04.58 3.45.58c.327 0 .958-.217 1.616-.444q.251-.087.501-.17c.82-.273 1.366-.275 1.366-.275s.546.002 1.366.275l.501.17c.658.227 1.29.444 1.616.444m-.521 15.385c.642.33 1.098.565 1.27.672.223.14.088.403-.116.547-.203.142-2.932 2.254-3.197 2.487l-.108.096c-.255.23-.58.523-.811.523-.23 0-.556-.294-.812-.523l-.107-.096c-.265-.233-2.994-2.345-3.197-2.488s-.34-.406-.117-.546c.173-.107.63-.342 1.273-.673l.61-.316c.963-.497 2.163-.92 2.35-.92s1.387.423 2.35.92z" clip-rule="evenodd"></path><path fill="url(&quot;#paint1_linear_722_122&quot;)" fill-rule="evenodd" d="M21.38 3.174 18.578 0H8.743l-2.8 3.174s-2.46-.683-3.62.477c0 0 3.279-.296 4.405 1.535 0 0 3.04.58 3.45.58s1.297-.34 2.117-.614 1.366-.275 1.366-.275.546.002 1.366.275 1.708.614 2.117.614 3.45-.58 3.45-.58c1.127-1.83 4.405-1.535 4.405-1.535-1.16-1.16-3.62-.477-3.62-.477" clip-rule="evenodd"></path><defs><linearGradient id="paint0_linear_722_122" x1="0.001" x2="27.321" y1="32.226" y2="32.226" gradientUnits="userSpaceOnUse"><stop stop-color="#F50"></stop><stop offset="0.41" stop-color="#F50"></stop><stop offset="0.582" stop-color="#FF2000"></stop><stop offset="1" stop-color="#FF2000"></stop></linearGradient><linearGradient id="paint1_linear_722_122" x1="2.81" x2="24.999" y1="5.745" y2="5.745" gradientUnits="userSpaceOnUse"><stop stop-color="#FF452A"></stop><stop offset="1" stop-color="#FF2000"></stop></linearGradient><linearGradient id="paint0_linear_722_122" x1="0.001" x2="27.321" y1="32.226" y2="32.226" gradientUnits="userSpaceOnUse"><stop stop-color="#F50"></stop><stop offset="0.41" stop-color="#F50"></stop><stop offset="0.582" stop-color="#FF2000"></stop><stop offset="1" stop-color="#FF2000"></stop></linearGradient><linearGradient id="paint1_linear_722_122" x1="2.81" x2="24.999" y1="5.745" y2="5.745" gradientUnits="userSpaceOnUse"><stop stop-color="#FF452A"></stop><stop offset="1" stop-color="#FF2000"></stop></linearGradient><linearGradient id="paint0_linear_722_122" x1="0.001" x2="27.321" y1="32.226" y2="32.226" gradientUnits="userSpaceOnUse"><stop stop-color="#F50"></stop><stop offset="0.41" stop-color="#F50"></stop><stop offset="0.582" stop-color="#FF2000"></stop><stop offset="1" stop-color="#FF2000"></stop></linearGradient><linearGradient id="paint1_linear_722_122" x1="2.81" x2="24.999" y1="5.745" y2="5.745" gradientUnits="userSpaceOnUse"><stop stop-color="#FF452A"></stop><stop offset="1" stop-color="#FF2000"></stop></linearGradient></defs></svg>