<svg xmlns:xlink="http://www.w3.org/1999/xlink" xmlns="http://www.w3.org/2000/svg" width="28" height="28" fill="none" viewBox="0 0 28 28"><path fill="url(&quot;#paint0_linear_722_101&quot;)" d="M14 28c7.732 0 14-6.268 14-14S21.732 0 14 0 0 6.268 0 14s6.268 14 14 14"></path><path fill="#EC1C24" fill-rule="evenodd" d="m23.013 8.225-7.493 7.328v9.113c0 .164-.711.295-1.52.305-.777-.01-1.521-.141-1.521-.305v-9.113l-7.49-7.327c-.12-.121.262-.69.853-1.28.59-.591 1.17-.973 1.279-.853l6.869 6.704 6.868-6.706c.121-.12.689.263 1.28.853.591.592.984 1.16.875 1.28z" clip-rule="evenodd"></path><defs><linearGradient id="paint0_linear_722_101" x1="1400" x2="1400" y1="0" y2="2800" gradientUnits="userSpaceOnUse"><stop stop-color="#fff"></stop><stop offset="1" stop-color="#EDEDEE"></stop></linearGradient><linearGradient id="paint0_linear_722_101" x1="1400" x2="1400" y1="0" y2="2800" gradientUnits="userSpaceOnUse"><stop stop-color="#fff"></stop><stop offset="1" stop-color="#EDEDEE"></stop></linearGradient><linearGradient id="paint0_linear_722_101" x1="1400" x2="1400" y1="0" y2="2800" gradientUnits="userSpaceOnUse"><stop stop-color="#fff"></stop><stop offset="1" stop-color="#EDEDEE"></stop></linearGradient></defs></svg>