<svg xmlns:xlink="http://www.w3.org/1999/xlink" xmlns="http://www.w3.org/2000/svg" width="80" height="80" fill="none" viewBox="0 0 80 80"><clipPath id="a" fill="none"><path d="M0 0h80v80H0z" fill="none"></path></clipPath><g clip-path="url(#a)" fill="none"><path fill="#1B1F24" d="M0 35.2c0-12.321 0-18.482 2.398-23.188a22 22 0 0 1 9.614-9.614C16.718 0 22.88 0 35.2 0h9.6c12.321 0 18.482 0 23.188 2.398a22 22 0 0 1 9.614 9.614C80 16.718 80 22.88 80 35.2v9.6c0 12.321 0 18.482-2.398 23.188a22 22 0 0 1-9.614 9.614C63.282 80 57.12 80 44.8 80h-9.6c-12.321 0-18.482 0-23.188-2.398a22 22 0 0 1-9.614-9.614C0 63.282 0 57.12 0 44.8z"></path><path fill="#FFFFFF" fill-rule="evenodd" d="m17.017 23.806 22.26 9.846c.567.266 1.275.23 2.16-.177l21.924-9.686c1.169-.425.514-1.736-.407-1.594L17.513 22c-1.275.053-1.63 1.328-.496 1.806m-1.789 5.047 20.968 32.585c.655 1.062 2.32.46 2.266-.496l-.035-22.349c-.018-1.257-.337-1.54-1.134-1.877l-20.967-9.333c-.761-.425-1.789.284-1.098 1.47m26.794 9.333.053 22.49c.018 1.506 1.523 1.789 2.39.514l18.223-28.228.39-.602.336-.514v-.018l1.913-2.94c.584-.973-.337-2.089-1.718-1.434l-20.79 9.368-.107.053c-.265.16-.442.32-.53.514-.125.213-.16.478-.16.797" clip-rule="evenodd"></path></g></svg>