<svg xmlns:xlink="http://www.w3.org/1999/xlink" xmlns="http://www.w3.org/2000/svg" width="28" height="29" fill="none" viewBox="0 0 28 29"><path fill="url(&quot;#paint0_linear_722_123&quot;)" d="M26.985 9.71c-.61-1.466-1.844-3.048-2.812-3.548a14.6 14.6 0 0 1 1.42 4.253l.002.023C24.01 6.49 21.324 4.894 19.13 1.426a17 17 0 0 1-.33-.537 4 4 0 0 1-.155-.29 2.6 2.6 0 0 1-.209-.554.036.036 0 0 0-.032-.036.1.1 0 0 0-.026 0l-.007.004-.01.005.005-.01c-3.52 2.062-4.716 5.877-4.824 7.787a7 7 0 0 0-3.859 1.487 4 4 0 0 0-.362-.274 6.5 6.5 0 0 1-.039-3.426 10.4 10.4 0 0 0-3.374 2.607h-.006c-.556-.704-.517-3.026-.485-3.51q-.247.099-.468.248-.737.526-1.37 1.173-.721.732-1.31 1.572v.003-.003a11.8 11.8 0 0 0-1.88 4.246l-.02.092q-.077.436-.137.876 0 .015-.004.03A13 13 0 0 0 0 14.85v.072a14.018 14.018 0 0 0 27.829 2.37q.033-.27.064-.542a14.4 14.4 0 0 0-.91-7.042zM10.83 20.682q.096.05.194.096l.01.006zm14.765-10.24v-.013l.003.015z"></path><path fill="url(&quot;#paint1_radial_722_123&quot;)" d="M26.985 9.71c-.61-1.466-1.844-3.048-2.812-3.548a14.6 14.6 0 0 1 1.42 4.253v.013l.002.015a12.7 12.7 0 0 1-.436 9.46c-1.607 3.448-5.493 6.98-11.58 6.807C7.004 26.524 1.21 21.643.129 15.253c-.197-1.008 0-1.519.1-2.338-.136.636-.211 1.284-.226 1.934v.072a14.017 14.017 0 0 0 27.829 2.37q.034-.27.064-.542a14.4 14.4 0 0 0-.91-7.041z"></path><path fill="url(&quot;#paint2_radial_722_123&quot;)" d="M26.985 9.71c-.61-1.466-1.844-3.048-2.812-3.548a14.6 14.6 0 0 1 1.42 4.253v.013l.002.015a12.7 12.7 0 0 1-.436 9.46c-1.607 3.448-5.493 6.98-11.58 6.807C7.004 26.524 1.21 21.643.129 15.253c-.197-1.008 0-1.519.1-2.338-.136.636-.211 1.284-.226 1.934v.072a14.017 14.017 0 0 0 27.829 2.37q.034-.27.064-.542a14.4 14.4 0 0 0-.91-7.041z"></path><path fill="url(&quot;#paint3_radial_722_123&quot;)" d="m20.172 11.355.087.064a7.6 7.6 0 0 0-1.302-1.698c-4.358-4.358-1.142-9.446-.6-9.707l.006-.008c-3.521 2.062-4.716 5.877-4.825 7.787.164-.011.326-.025.493-.025a7.07 7.07 0 0 1 6.14 3.586z"></path><path fill="url(&quot;#paint4_radial_722_123&quot;)" d="M14.038 12.227c-.023.348-1.255 1.55-1.686 1.55-3.985 0-4.632 2.412-4.632 2.412.176 2.03 1.591 3.703 3.301 4.586q.117.06.237.112.206.091.411.169a6.2 6.2 0 0 0 1.824.352c6.987.327 8.34-8.354 3.298-10.875a4.84 4.84 0 0 1 3.38.82 7.07 7.07 0 0 0-6.141-3.586c-.167 0-.33.014-.493.025A7 7 0 0 0 9.678 9.28c.214.18.455.422.963.923.952.937 3.391 1.908 3.396 2.022z"></path><path fill="url(&quot;#paint5_radial_722_123&quot;)" d="M14.038 12.227c-.023.348-1.255 1.55-1.686 1.55-3.985 0-4.632 2.412-4.632 2.412.176 2.03 1.591 3.703 3.301 4.586q.117.06.237.112.206.091.411.169a6.2 6.2 0 0 0 1.824.352c6.987.327 8.34-8.354 3.298-10.875a4.84 4.84 0 0 1 3.38.82 7.07 7.07 0 0 0-6.141-3.586c-.167 0-.33.014-.493.025A7 7 0 0 0 9.678 9.28c.214.18.455.422.963.923.952.937 3.391 1.908 3.396 2.022z"></path><path fill="url(&quot;#paint6_radial_722_123&quot;)" d="M9.025 8.816c.114.073.208.136.29.192a6.5 6.5 0 0 1-.04-3.426A10.4 10.4 0 0 0 5.901 8.19c.069-.002 2.102-.038 3.124.626"></path><path fill="url(&quot;#paint7_radial_722_123&quot;)" d="M.127 15.254c1.081 6.39 6.875 11.272 13.45 11.457 6.086.172 9.974-3.361 11.58-6.806a12.7 12.7 0 0 0 .436-9.461v-.014c0-.01-.003-.016 0-.013l.002.023c.497 3.247-1.154 6.39-3.736 8.52l-.008.019c-5.03 4.098-9.844 2.472-10.817 1.808l-.204-.101c-2.932-1.402-4.144-4.073-3.884-6.365a3.6 3.6 0 0 1-3.32-2.089 5.29 5.29 0 0 1 5.154-.207 6.98 6.98 0 0 0 5.262.207c-.006-.114-2.445-1.085-3.396-2.022-.509-.5-.75-.742-.963-.923a4 4 0 0 0-.362-.274l-.29-.192c-1.022-.665-3.055-.628-3.122-.626h-.007c-.555-.705-.516-3.026-.484-3.511q-.248.1-.468.248c-.49.35-.95.743-1.37 1.174q-.724.73-1.316 1.568a11.8 11.8 0 0 0-1.88 4.246c-.007.028-.505 2.205-.26 3.334z"></path><path fill="url(&quot;#paint8_radial_722_123&quot;)" d="M18.956 9.72a7.6 7.6 0 0 1 1.302 1.7q.117.087.21.172c3.178 2.93 1.513 7.07 1.389 7.364 2.581-2.127 4.231-5.273 3.736-8.521-1.586-3.953-4.275-5.548-6.467-9.016a17 17 0 0 1-.33-.537 5 5 0 0 1-.154-.289 2.6 2.6 0 0 1-.21-.555.036.036 0 0 0-.032-.036.1.1 0 0 0-.025 0l-.007.004-.01.005c-.543.257-3.758 5.349.6 9.703z"></path><path fill="url(&quot;#paint9_radial_722_123&quot;)" d="M20.468 11.594a3 3 0 0 0-.21-.172q-.042-.033-.087-.064a4.84 4.84 0 0 0-3.38-.821c5.042 2.52 3.69 11.2-3.298 10.875a6.2 6.2 0 0 1-1.823-.352 7 7 0 0 1-.649-.281l.01.006c.974.665 5.787 2.29 10.817-1.808l.008-.019c.126-.292 1.79-4.433-1.389-7.363z"></path><path fill="url(&quot;#paint10_radial_722_123&quot;)" d="M7.72 16.187s.647-2.411 4.632-2.411c.431 0 1.664-1.203 1.686-1.551a6.98 6.98 0 0 1-5.262-.207 5.29 5.29 0 0 0-5.153.207 3.6 3.6 0 0 0 3.32 2.088c-.26 2.292.952 4.962 3.884 6.365.065.031.127.066.194.095-1.711-.884-3.125-2.556-3.301-4.585z"></path><path fill="url(&quot;#paint11_linear_722_123&quot;)" d="M26.985 9.71c-.61-1.466-1.845-3.048-2.812-3.548a14.6 14.6 0 0 1 1.42 4.253l.002.023c-1.585-3.949-4.271-5.544-6.466-9.012a17 17 0 0 1-.33-.537 5 5 0 0 1-.155-.29 2.6 2.6 0 0 1-.21-.554.036.036 0 0 0-.032-.036.1.1 0 0 0-.025 0l-.007.004-.01.005.005-.01c-3.52 2.062-4.716 5.877-4.824 7.787.163-.011.325-.025.492-.025a7.07 7.07 0 0 1 6.141 3.587 4.84 4.84 0 0 0-3.38-.821c5.042 2.52 3.69 11.2-3.298 10.875a6.2 6.2 0 0 1-1.823-.352 8 8 0 0 1-.648-.282l.01.007-.204-.102c.065.032.126.066.194.096-1.712-.885-3.125-2.557-3.302-4.586 0 0 .647-2.411 4.633-2.411.43 0 1.664-1.203 1.686-1.552-.006-.113-2.445-1.084-3.396-2.021-.509-.501-.75-.742-.963-.923a4 4 0 0 0-.362-.275 6.5 6.5 0 0 1-.04-3.425 10.4 10.4 0 0 0-3.373 2.607H5.9c-.555-.704-.516-3.026-.484-3.51q-.248.098-.468.248c-.49.35-.95.742-1.37 1.173q-.722.732-1.31 1.572a11.8 11.8 0 0 0-1.881 4.246l-.019.092c-.026.124-.145.75-.162.885q-.162.97-.207 1.954v.072a14.018 14.018 0 0 0 27.83 2.37q.033-.27.063-.542a14.4 14.4 0 0 0-.91-7.042z"></path><defs><radialGradient id="paint1_radial_722_123" cx="0" cy="0" r="1" gradientTransform="translate(24.23 3.261)scale(29.2213)" gradientUnits="userSpaceOnUse"><stop offset="0.129" stop-color="#FFBD4F"></stop><stop offset="0.186" stop-color="#FFAC31"></stop><stop offset="0.247" stop-color="#FF9D17"></stop><stop offset="0.283" stop-color="#FF980E"></stop><stop offset="0.403" stop-color="#FF563B"></stop><stop offset="0.467" stop-color="#FF3750"></stop><stop offset="0.71" stop-color="#F5156C"></stop><stop offset="0.782" stop-color="#EB0878"></stop><stop offset="0.86" stop-color="#E50080"></stop></radialGradient><radialGradient id="paint2_radial_722_123" cx="0" cy="0" r="1" gradientTransform="translate(13.38 15.196)scale(29.2213)" gradientUnits="userSpaceOnUse"><stop offset="0.3" stop-color="#960E18"></stop><stop offset="0.351" stop-color="#B11927" stop-opacity="0.74"></stop><stop offset="0.435" stop-color="#DB293D" stop-opacity="0.343"></stop><stop offset="0.497" stop-color="#F5334B" stop-opacity="0.094"></stop><stop offset="0.53" stop-color="#FF3750" stop-opacity="0"></stop></radialGradient><radialGradient id="paint3_radial_722_123" cx="0" cy="0" r="1" gradientTransform="translate(16.996 -3.248)scale(21.1674)" gradientUnits="userSpaceOnUse"><stop offset="0.132" stop-color="#FFF44F"></stop><stop offset="0.252" stop-color="#FFDC3E"></stop><stop offset="0.506" stop-color="#FF9D12"></stop><stop offset="0.526" stop-color="#FF980E"></stop></radialGradient><radialGradient id="paint4_radial_722_123" cx="0" cy="0" r="1" gradientTransform="translate(10.125 22.79)scale(13.9127)" gradientUnits="userSpaceOnUse"><stop offset="0.353" stop-color="#3A8EE6"></stop><stop offset="0.472" stop-color="#5C79F0"></stop><stop offset="0.669" stop-color="#9059FF"></stop><stop offset="1" stop-color="#C139E6"></stop></radialGradient><radialGradient id="paint5_radial_722_123" cx="0" cy="0" r="1" gradientTransform="matrix(7.1711 -1.73376 2.0298 8.39555 14.793 12.687)" gradientUnits="userSpaceOnUse"><stop offset="0.206" stop-color="#9059FF" stop-opacity="0"></stop><stop offset="0.278" stop-color="#8C4FF3" stop-opacity="0.064"></stop><stop offset="0.747" stop-color="#7716A8" stop-opacity="0.45"></stop><stop offset="0.975" stop-color="#6E008B" stop-opacity="0.6"></stop></radialGradient><radialGradient id="paint6_radial_722_123" cx="0" cy="0" r="1" gradientTransform="translate(13.018 2.176)scale(10.0105)" gradientUnits="userSpaceOnUse"><stop stop-color="#FFE226"></stop><stop offset="0.121" stop-color="#FFDB27"></stop><stop offset="0.295" stop-color="#FFC82A"></stop><stop offset="0.502" stop-color="#FFA930"></stop><stop offset="0.732" stop-color="#FF7E37"></stop><stop offset="0.792" stop-color="#FF7139"></stop></radialGradient><radialGradient id="paint7_radial_722_123" cx="0" cy="0" r="1" gradientTransform="translate(20.974 -4.333)scale(42.7109)" gradientUnits="userSpaceOnUse"><stop offset="0.113" stop-color="#FFF44F"></stop><stop offset="0.456" stop-color="#FF980E"></stop><stop offset="0.622" stop-color="#FF5634"></stop><stop offset="0.716" stop-color="#FF3647"></stop><stop offset="0.904" stop-color="#E31587"></stop></radialGradient><radialGradient id="paint8_radial_722_123" cx="0" cy="0" r="1" gradientTransform="matrix(3.2847 31.12637 -20.42797 2.15572 17.424 -1.965)" gradientUnits="userSpaceOnUse"><stop stop-color="#FFF44F"></stop><stop offset="0.06" stop-color="#FFE847"></stop><stop offset="0.168" stop-color="#FFC830"></stop><stop offset="0.304" stop-color="#FF980E"></stop><stop offset="0.356" stop-color="#FF8B16"></stop><stop offset="0.455" stop-color="#FF672A"></stop><stop offset="0.57" stop-color="#FF3647"></stop><stop offset="0.737" stop-color="#E31587"></stop></radialGradient><radialGradient id="paint9_radial_722_123" cx="0" cy="0" r="1" gradientTransform="translate(13.018 5.793)scale(26.6608)" gradientUnits="userSpaceOnUse"><stop offset="0.137" stop-color="#FFF44F"></stop><stop offset="0.48" stop-color="#FF980E"></stop><stop offset="0.592" stop-color="#FF5634"></stop><stop offset="0.655" stop-color="#FF3647"></stop><stop offset="0.904" stop-color="#E31587"></stop></radialGradient><radialGradient id="paint10_radial_722_123" cx="0" cy="0" r="1" gradientTransform="translate(19.89 7.24)scale(29.1815)" gradientUnits="userSpaceOnUse"><stop offset="0.094" stop-color="#FFF44F"></stop><stop offset="0.231" stop-color="#FFE141"></stop><stop offset="0.509" stop-color="#FFAF1E"></stop><stop offset="0.626" stop-color="#FF980E"></stop></radialGradient><linearGradient id="paint0_linear_722_123" x1="25.13" x2="1.86" y1="4.486" y2="26.937" gradientUnits="userSpaceOnUse"><stop offset="0.048" stop-color="#FFF44F"></stop><stop offset="0.111" stop-color="#FFE847"></stop><stop offset="0.225" stop-color="#FFC830"></stop><stop offset="0.368" stop-color="#FF980E"></stop><stop offset="0.401" stop-color="#FF8B16"></stop><stop offset="0.462" stop-color="#FF672A"></stop><stop offset="0.534" stop-color="#FF3647"></stop><stop offset="0.705" stop-color="#E31587"></stop></linearGradient><linearGradient id="paint11_linear_722_123" x1="24.847" x2="5.051" y1="4.367" y2="24.167" gradientUnits="userSpaceOnUse"><stop offset="0.167" stop-color="#FFF44F" stop-opacity="0.8"></stop><stop offset="0.266" stop-color="#FFF44F" stop-opacity="0.634"></stop><stop offset="0.489" stop-color="#FFF44F" stop-opacity="0.217"></stop><stop offset="0.6" stop-color="#FFF44F" stop-opacity="0"></stop></linearGradient><linearGradient id="paint0_linear_722_123" x1="25.13" x2="1.86" y1="4.486" y2="26.937" gradientUnits="userSpaceOnUse"><stop offset="0.048" stop-color="#FFF44F"></stop><stop offset="0.111" stop-color="#FFE847"></stop><stop offset="0.225" stop-color="#FFC830"></stop><stop offset="0.368" stop-color="#FF980E"></stop><stop offset="0.401" stop-color="#FF8B16"></stop><stop offset="0.462" stop-color="#FF672A"></stop><stop offset="0.534" stop-color="#FF3647"></stop><stop offset="0.705" stop-color="#E31587"></stop></linearGradient><radialGradient id="paint1_radial_722_123" cx="0" cy="0" r="1" gradientTransform="translate(24.23 3.261)scale(29.2213)" gradientUnits="userSpaceOnUse"><stop offset="0.129" stop-color="#FFBD4F"></stop><stop offset="0.186" stop-color="#FFAC31"></stop><stop offset="0.247" stop-color="#FF9D17"></stop><stop offset="0.283" stop-color="#FF980E"></stop><stop offset="0.403" stop-color="#FF563B"></stop><stop offset="0.467" stop-color="#FF3750"></stop><stop offset="0.71" stop-color="#F5156C"></stop><stop offset="0.782" stop-color="#EB0878"></stop><stop offset="0.86" stop-color="#E50080"></stop></radialGradient><radialGradient id="paint2_radial_722_123" cx="0" cy="0" r="1" gradientTransform="translate(13.38 15.196)scale(29.2213)" gradientUnits="userSpaceOnUse"><stop offset="0.3" stop-color="#960E18"></stop><stop offset="0.351" stop-color="#B11927" stop-opacity="0.74"></stop><stop offset="0.435" stop-color="#DB293D" stop-opacity="0.343"></stop><stop offset="0.497" stop-color="#F5334B" stop-opacity="0.094"></stop><stop offset="0.53" stop-color="#FF3750" stop-opacity="0"></stop></radialGradient><radialGradient id="paint3_radial_722_123" cx="0" cy="0" r="1" gradientTransform="translate(16.996 -3.248)scale(21.1674)" gradientUnits="userSpaceOnUse"><stop offset="0.132" stop-color="#FFF44F"></stop><stop offset="0.252" stop-color="#FFDC3E"></stop><stop offset="0.506" stop-color="#FF9D12"></stop><stop offset="0.526" stop-color="#FF980E"></stop></radialGradient><radialGradient id="paint4_radial_722_123" cx="0" cy="0" r="1" gradientTransform="translate(10.125 22.79)scale(13.9127)" gradientUnits="userSpaceOnUse"><stop offset="0.353" stop-color="#3A8EE6"></stop><stop offset="0.472" stop-color="#5C79F0"></stop><stop offset="0.669" stop-color="#9059FF"></stop><stop offset="1" stop-color="#C139E6"></stop></radialGradient><radialGradient id="paint5_radial_722_123" cx="0" cy="0" r="1" gradientTransform="matrix(7.1711 -1.73376 2.0298 8.39555 14.793 12.687)" gradientUnits="userSpaceOnUse"><stop offset="0.206" stop-color="#9059FF" stop-opacity="0"></stop><stop offset="0.278" stop-color="#8C4FF3" stop-opacity="0.064"></stop><stop offset="0.747" stop-color="#7716A8" stop-opacity="0.45"></stop><stop offset="0.975" stop-color="#6E008B" stop-opacity="0.6"></stop></radialGradient><radialGradient id="paint6_radial_722_123" cx="0" cy="0" r="1" gradientTransform="translate(13.018 2.176)scale(10.0105)" gradientUnits="userSpaceOnUse"><stop stop-color="#FFE226"></stop><stop offset="0.121" stop-color="#FFDB27"></stop><stop offset="0.295" stop-color="#FFC82A"></stop><stop offset="0.502" stop-color="#FFA930"></stop><stop offset="0.732" stop-color="#FF7E37"></stop><stop offset="0.792" stop-color="#FF7139"></stop></radialGradient><radialGradient id="paint7_radial_722_123" cx="0" cy="0" r="1" gradientTransform="translate(20.974 -4.333)scale(42.7109)" gradientUnits="userSpaceOnUse"><stop offset="0.113" stop-color="#FFF44F"></stop><stop offset="0.456" stop-color="#FF980E"></stop><stop offset="0.622" stop-color="#FF5634"></stop><stop offset="0.716" stop-color="#FF3647"></stop><stop offset="0.904" stop-color="#E31587"></stop></radialGradient><radialGradient id="paint8_radial_722_123" cx="0" cy="0" r="1" gradientTransform="matrix(3.2847 31.12637 -20.42797 2.15572 17.424 -1.965)" gradientUnits="userSpaceOnUse"><stop stop-color="#FFF44F"></stop><stop offset="0.06" stop-color="#FFE847"></stop><stop offset="0.168" stop-color="#FFC830"></stop><stop offset="0.304" stop-color="#FF980E"></stop><stop offset="0.356" stop-color="#FF8B16"></stop><stop offset="0.455" stop-color="#FF672A"></stop><stop offset="0.57" stop-color="#FF3647"></stop><stop offset="0.737" stop-color="#E31587"></stop></radialGradient><radialGradient id="paint9_radial_722_123" cx="0" cy="0" r="1" gradientTransform="translate(13.018 5.793)scale(26.6608)" gradientUnits="userSpaceOnUse"><stop offset="0.137" stop-color="#FFF44F"></stop><stop offset="0.48" stop-color="#FF980E"></stop><stop offset="0.592" stop-color="#FF5634"></stop><stop offset="0.655" stop-color="#FF3647"></stop><stop offset="0.904" stop-color="#E31587"></stop></radialGradient><radialGradient id="paint10_radial_722_123" cx="0" cy="0" r="1" gradientTransform="translate(19.89 7.24)scale(29.1815)" gradientUnits="userSpaceOnUse"><stop offset="0.094" stop-color="#FFF44F"></stop><stop offset="0.231" stop-color="#FFE141"></stop><stop offset="0.509" stop-color="#FFAF1E"></stop><stop offset="0.626" stop-color="#FF980E"></stop></radialGradient><linearGradient id="paint11_linear_722_123" x1="24.847" x2="5.051" y1="4.367" y2="24.167" gradientUnits="userSpaceOnUse"><stop offset="0.167" stop-color="#FFF44F" stop-opacity="0.8"></stop><stop offset="0.266" stop-color="#FFF44F" stop-opacity="0.634"></stop><stop offset="0.489" stop-color="#FFF44F" stop-opacity="0.217"></stop><stop offset="0.6" stop-color="#FFF44F" stop-opacity="0"></stop></linearGradient></defs></svg>