<svg xmlns:xlink="http://www.w3.org/1999/xlink" xmlns="http://www.w3.org/2000/svg" width="28" height="28" fill="none" viewBox="0 0 28 28"><path fill="#FFFFFF" d="M21 14c0 3.865-3.135 7-7 7s-7-3.135-7-7 3.135-7 7-7 7 3.135 7 7"></path><path fill="url(&quot;#paint0_linear_722_124&quot;)" d="M19.13 17.647 13.42 27.986C5.957 27.685 0 21.532 0 14 0 6.272 6.272 0 14 0v7.7a6.3 6.3 0 0 0 0 12.6 6.27 6.27 0 0 0 5.13-2.653"></path><path fill="url(&quot;#paint1_linear_722_124&quot;)" d="M28 14c0 7.735-6.265 14-14 14h-.588l5.72-10.353A6.26 6.26 0 0 0 20.3 14 6.3 6.3 0 0 0 14 7.7V0c5.467 0 10.185 3.136 12.495 7.7A14 14 0 0 1 28 14"></path><path fill="url(&quot;#paint2_linear_722_124&quot;)" d="M26.488 7.7H14A6.3 6.3 0 0 0 7.7 14c0 1.043.252 2.023.707 2.89H8.4L2.212 6.483h-.014A13.96 13.96 0 0 1 14 0c5.46 0 10.185 3.136 12.488 7.7"></path><path fill="url(&quot;#paint3_linear_722_124&quot;)" d="M18.9 14a4.9 4.9 0 0 1-4.9 4.9A4.9 4.9 0 0 1 9.1 14 4.9 4.9 0 0 1 14 9.1a4.9 4.9 0 0 1 4.9 4.9"></path><defs><linearGradient id="paint0_linear_722_124" x1="1.252" x2="19.127" y1="8.151" y2="17.655" gradientUnits="userSpaceOnUse"><stop stop-color="#4CAF50"></stop><stop offset="0.489" stop-color="#4AAF50"></stop><stop offset="0.665" stop-color="#43AD50"></stop><stop offset="0.79" stop-color="#38AA50"></stop><stop offset="0.892" stop-color="#27A550"></stop><stop offset="0.978" stop-color="#11A050"></stop><stop offset="1" stop-color="#0A9E50"></stop></linearGradient><linearGradient id="paint1_linear_722_124" x1="20.706" x2="20.706" y1="28" y2="7.842" gradientUnits="userSpaceOnUse"><stop stop-color="#FFD747"></stop><stop offset="0.482" stop-color="#FFD645"></stop><stop offset="0.655" stop-color="#FED43E"></stop><stop offset="0.779" stop-color="#FCCF33"></stop><stop offset="0.879" stop-color="#FAC922"></stop><stop offset="0.964" stop-color="#F7C10C"></stop><stop offset="1" stop-color="#F5BC00"></stop></linearGradient><linearGradient id="paint2_linear_722_124" x1="22.49" x2="5.302" y1="1.192" y2="11.932" gradientUnits="userSpaceOnUse"><stop stop-color="#F7572F"></stop><stop offset="0.523" stop-color="#F7552D"></stop><stop offset="0.712" stop-color="#F75026"></stop><stop offset="0.846" stop-color="#F7461B"></stop><stop offset="0.954" stop-color="#F7390A"></stop><stop offset="1" stop-color="#F73100"></stop></linearGradient><linearGradient id="paint3_linear_722_124" x1="10.535" x2="17.465" y1="10.535" y2="17.465" gradientUnits="userSpaceOnUse"><stop stop-color="#2AA4F4"></stop><stop offset="1" stop-color="#007AD9"></stop></linearGradient><linearGradient id="paint0_linear_722_124" x1="1.252" x2="19.127" y1="8.151" y2="17.655" gradientUnits="userSpaceOnUse"><stop stop-color="#4CAF50"></stop><stop offset="0.489" stop-color="#4AAF50"></stop><stop offset="0.665" stop-color="#43AD50"></stop><stop offset="0.79" stop-color="#38AA50"></stop><stop offset="0.892" stop-color="#27A550"></stop><stop offset="0.978" stop-color="#11A050"></stop><stop offset="1" stop-color="#0A9E50"></stop></linearGradient><linearGradient id="paint1_linear_722_124" x1="20.706" x2="20.706" y1="28" y2="7.842" gradientUnits="userSpaceOnUse"><stop stop-color="#FFD747"></stop><stop offset="0.482" stop-color="#FFD645"></stop><stop offset="0.655" stop-color="#FED43E"></stop><stop offset="0.779" stop-color="#FCCF33"></stop><stop offset="0.879" stop-color="#FAC922"></stop><stop offset="0.964" stop-color="#F7C10C"></stop><stop offset="1" stop-color="#F5BC00"></stop></linearGradient><linearGradient id="paint2_linear_722_124" x1="22.49" x2="5.302" y1="1.192" y2="11.932" gradientUnits="userSpaceOnUse"><stop stop-color="#F7572F"></stop><stop offset="0.523" stop-color="#F7552D"></stop><stop offset="0.712" stop-color="#F75026"></stop><stop offset="0.846" stop-color="#F7461B"></stop><stop offset="0.954" stop-color="#F7390A"></stop><stop offset="1" stop-color="#F73100"></stop></linearGradient><linearGradient id="paint3_linear_722_124" x1="10.535" x2="17.465" y1="10.535" y2="17.465" gradientUnits="userSpaceOnUse"><stop stop-color="#2AA4F4"></stop><stop offset="1" stop-color="#007AD9"></stop></linearGradient></defs></svg>